<svg width="347" height="124" viewBox="0 0 347 124" fill="none" xmlns="http://www.w3.org/2000/svg">
<path d="M18.276 55.6544L5.60065 68.3298L18.276 81.0062V93.6974L0 75.4203V61.2404L18.276 42.9791V55.6544Z" fill="black"/>
<path d="M80.8668 68.4639L93.5421 55.7874L80.8668 43.1121V30.4209L99.1428 48.698V62.8779L80.8668 81.1392V68.4639Z" fill="black"/>
<path d="M77.6765 63.5409C79.7173 61.4985 80.8637 58.7293 80.8637 55.8418C80.8637 52.9544 79.7173 50.1851 77.6765 48.1427L56.0313 26.4901C55.4625 25.9215 54.6912 25.6021 53.887 25.6021C53.0828 25.6021 52.3115 25.9215 51.7428 26.4901V26.4901C51.461 26.7716 51.2374 27.1059 51.0849 27.4738C50.9324 27.8418 50.8539 28.2362 50.8539 28.6345C50.8539 29.0328 50.9324 29.4272 51.0849 29.7952C51.2374 30.1632 51.461 30.4974 51.7428 30.7789L73.3868 52.427C73.8355 52.8748 74.1915 53.4068 74.4344 53.9923C74.6773 54.5779 74.8023 55.2056 74.8023 55.8396C74.8023 56.4735 74.6773 57.1012 74.4344 57.6868C74.1915 58.2724 73.8355 58.8043 73.3868 59.2521L62.3327 70.3071C61.2833 71.3504 60.515 72.6423 60.0993 74.0626C59.6836 75.4828 59.634 76.9851 59.9552 78.4297L66.9631 110.626C67.0021 110.804 66.9822 110.99 66.9064 111.156C66.8305 111.323 66.7029 111.46 66.5426 111.547C66.3823 111.635 66.1979 111.668 66.0172 111.642C65.8364 111.616 65.669 111.532 65.54 111.402L56.1592 102.022C55.5905 101.453 54.8192 101.134 54.015 101.134C53.2108 101.134 52.4395 101.453 51.8707 102.022V102.022C51.3021 102.591 50.9827 103.362 50.9827 104.167C50.9827 104.971 51.3021 105.743 51.8707 106.312L67.4273 121.87C68.2411 122.686 69.3449 123.147 70.4976 123.152C71.1468 123.149 71.7871 123.001 72.3722 122.72C72.9572 122.438 73.4723 122.03 73.8801 121.525C74.2879 121.02 74.5782 120.43 74.73 119.799C74.8819 119.168 74.8914 118.511 74.7578 117.875L65.8853 77.1322C65.7843 76.6818 65.7988 76.2133 65.9274 75.77C66.0561 75.3268 66.2948 74.9233 66.6212 74.5971L77.6765 63.5409Z" fill="#9461E5"/>
<path d="M77.6765 63.5409C79.7173 61.4985 80.8637 58.7293 80.8637 55.8418C80.8637 52.9544 79.7173 50.1851 77.6765 48.1427L56.0313 26.4901C55.4625 25.9215 54.6912 25.6021 53.887 25.6021C53.0828 25.6021 52.3115 25.9215 51.7428 26.4901V26.4901C51.461 26.7716 51.2374 27.1059 51.0849 27.4738C50.9324 27.8418 50.8539 28.2362 50.8539 28.6345C50.8539 29.0328 50.9324 29.4272 51.0849 29.7952C51.2374 30.1632 51.461 30.4974 51.7428 30.7789L73.3868 52.427C73.8355 52.8748 74.1915 53.4068 74.4344 53.9923C74.6773 54.5779 74.8023 55.2056 74.8023 55.8396C74.8023 56.4735 74.6773 57.1012 74.4344 57.6868C74.1915 58.2724 73.8355 58.8043 73.3868 59.2521L62.3327 70.3071C61.2833 71.3504 60.515 72.6423 60.0993 74.0626C59.6836 75.4828 59.634 76.9851 59.9552 78.4297L66.9631 110.626C67.0021 110.804 66.9822 110.99 66.9064 111.156C66.8305 111.323 66.7029 111.46 66.5426 111.547C66.3823 111.635 66.1979 111.668 66.0172 111.642C65.8364 111.616 65.669 111.532 65.54 111.402L56.1592 102.022C55.5905 101.453 54.8192 101.134 54.015 101.134C53.2108 101.134 52.4395 101.453 51.8707 102.022V102.022C51.3021 102.591 50.9827 103.362 50.9827 104.167C50.9827 104.971 51.3021 105.743 51.8707 106.312L67.4273 121.87C68.2411 122.686 69.3449 123.147 70.4976 123.152C71.1468 123.149 71.7871 123.001 72.3722 122.72C72.9572 122.438 73.4723 122.03 73.8801 121.525C74.2879 121.02 74.5782 120.43 74.73 119.799C74.8819 119.168 74.8914 118.511 74.7578 117.875L65.8853 77.1322C65.7843 76.6818 65.7988 76.2133 65.9274 75.77C66.0561 75.3268 66.2948 74.9233 66.6212 74.5971L77.6765 63.5409Z" fill="url(#paint0_linear_408_10)"/>
<path d="M24.4086 69.0582C24.2675 68.2875 24.3157 67.4941 24.5492 66.7461C24.7827 65.9982 25.1945 65.3183 25.7491 64.7648L36.8043 53.7098C37.8538 52.6697 38.6224 51.3804 39.0382 49.9624C39.454 48.5445 39.5034 47.0442 39.1818 45.602L32.1694 13.4061C32.1301 13.2275 32.1497 13.0411 32.2254 12.8747C32.3011 12.7083 32.4288 12.5709 32.5892 12.4832C32.7496 12.3956 32.9341 12.3623 33.115 12.3884C33.2959 12.4146 33.4635 12.4987 33.5925 12.6282L42.8397 21.8774C43.4085 22.446 44.1798 22.7654 44.984 22.7654C45.7882 22.7654 46.5595 22.446 47.1282 21.8774V21.8774C47.6968 21.3086 48.0162 20.5372 48.0162 19.7329C48.0162 18.9287 47.6968 18.1573 47.1282 17.5885L31.7041 2.14612C31.0383 1.48253 30.1756 1.05232 29.2449 0.919813C28.3143 0.787304 27.3658 0.959619 26.5413 1.41099C25.7167 1.86236 25.0604 2.56853 24.6705 3.42391C24.2806 4.27929 24.178 5.23792 24.3781 6.15645L33.2517 46.8995C33.2979 47.0924 33.3226 47.2899 33.3253 47.4882C33.3237 47.8477 33.2513 48.2033 33.1122 48.5347C32.9731 48.8661 32.7701 49.1669 32.5147 49.4198L21.7595 60.1759C19.8745 62.0611 18.5646 64.5033 18.3246 67.1493C18.1681 68.748 18.3683 70.3616 18.9105 71.8736C19.4528 73.3857 20.3238 74.7586 21.4606 75.8934L42.9711 97.4057C43.54 97.9744 44.3115 98.2938 45.1159 98.2938C45.9203 98.2938 46.6917 97.9744 47.2607 97.4057V97.4057C47.8293 96.8367 48.1487 96.0651 48.1487 95.2607C48.1487 94.4562 47.8293 93.6847 47.2607 93.1157L25.8442 71.6997C25.1174 70.9762 24.5807 70.0648 24.4086 69.0582Z" fill="#9461E5"/>
<path d="M24.4086 69.0582C24.2675 68.2875 24.3157 67.4941 24.5492 66.7461C24.7827 65.9982 25.1945 65.3183 25.7491 64.7648L36.8043 53.7098C37.8538 52.6697 38.6224 51.3804 39.0382 49.9624C39.454 48.5445 39.5034 47.0442 39.1818 45.602L32.1694 13.4061C32.1301 13.2275 32.1497 13.0411 32.2254 12.8747C32.3011 12.7083 32.4288 12.5709 32.5892 12.4832C32.7496 12.3956 32.9341 12.3623 33.115 12.3884C33.2959 12.4146 33.4635 12.4987 33.5925 12.6282L42.8397 21.8774C43.4085 22.446 44.1798 22.7654 44.984 22.7654C45.7882 22.7654 46.5595 22.446 47.1282 21.8774V21.8774C47.6968 21.3086 48.0162 20.5372 48.0162 19.7329C48.0162 18.9287 47.6968 18.1573 47.1282 17.5885L31.7041 2.14612C31.0383 1.48253 30.1756 1.05232 29.2449 0.919813C28.3143 0.787304 27.3658 0.959619 26.5413 1.41099C25.7167 1.86236 25.0604 2.56853 24.6705 3.42391C24.2806 4.27929 24.178 5.23792 24.3781 6.15645L33.2517 46.8995C33.2979 47.0924 33.3226 47.2899 33.3253 47.4882C33.3237 47.8477 33.2513 48.2033 33.1122 48.5347C32.9731 48.8661 32.7701 49.1669 32.5147 49.4198L21.7595 60.1759C19.8745 62.0611 18.5646 64.5033 18.3246 67.1493C18.1681 68.748 18.3683 70.3616 18.9105 71.8736C19.4528 73.3857 20.3238 74.7586 21.4606 75.8934L42.9711 97.4057C43.54 97.9744 44.3115 98.2938 45.1159 98.2938C45.9203 98.2938 46.6917 97.9744 47.2607 97.4057V97.4057C47.8293 96.8367 48.1487 96.0651 48.1487 95.2607C48.1487 94.4562 47.8293 93.6847 47.2607 93.1157L25.8442 71.6997C25.1174 70.9762 24.5807 70.0648 24.4086 69.0582Z" fill="url(#paint1_linear_408_10)"/>
<path d="M347 75.5861C347 76.5453 346.685 77.3396 346.056 77.9691C345.426 78.5686 344.632 78.8684 343.672 78.8684C342.683 78.8684 341.888 78.5686 341.289 77.9691C340.689 77.3396 340.389 76.5453 340.389 75.5861C340.389 74.5969 340.689 73.8026 341.289 73.2031C341.888 72.5736 342.683 72.2589 343.672 72.2589C344.632 72.2589 345.426 72.5736 346.056 73.2031C346.685 73.8026 347 74.5969 347 75.5861Z" fill="#9461E5"/>
<path d="M155.067 75.604C152.234 77.7804 148.768 78.8685 144.668 78.8685C141.052 78.8685 138.068 77.8996 135.717 75.9618C133.366 74.024 132.19 71.1917 132.19 67.4651V57.2691C132.19 53.5425 133.366 50.7102 135.717 48.7724C138.068 46.8047 141.022 45.8209 144.578 45.8209C148.135 45.8209 151.36 46.8197 154.253 48.8171C154.585 49.0556 154.63 49.3538 154.389 49.7115L152.264 52.7524C152.053 53.1102 151.736 53.1698 151.314 52.9313C149.355 51.5897 147.11 50.9189 144.578 50.9189C142.408 50.9189 140.705 51.4854 139.469 52.6183C138.264 53.7512 137.661 55.3163 137.661 57.3138V67.3309C137.661 69.3582 138.264 70.9383 139.469 72.0712C140.705 73.2041 142.423 73.7705 144.623 73.7705C147.456 73.7705 149.958 72.9954 152.128 71.4451C152.52 71.1768 152.821 71.2364 153.032 71.624L155.157 74.6649C155.398 75.0525 155.368 75.3655 155.067 75.604Z" fill="black"/>
<path d="M178.973 69.8352C178.973 72.6078 178.038 74.814 176.17 76.4537C174.301 78.0636 171.799 78.8685 168.665 78.8685C165.53 78.8685 163.029 78.0636 161.16 76.4537C159.291 74.814 158.357 72.6078 158.357 69.8352V63.8428C158.357 61.0404 159.291 58.8045 161.16 57.1349C163.029 55.4654 165.53 54.6306 168.665 54.6306C171.799 54.6306 174.301 55.4654 176.17 57.1349C178.038 58.8045 178.973 61.0404 178.973 63.8428V69.8352ZM163.646 69.8352C163.646 72.7569 165.319 74.2177 168.665 74.2177C170.292 74.2177 171.528 73.8451 172.372 73.0997C173.246 72.3544 173.683 71.2663 173.683 69.8352V63.8428C173.683 62.382 173.246 61.264 172.372 60.4889C171.498 59.6839 170.262 59.2815 168.665 59.2815C167.037 59.2815 165.786 59.669 164.912 60.4442C164.068 61.2193 163.646 62.3522 163.646 63.8428V69.8352Z" fill="black"/>
<path d="M188.415 78.3319H184.527C184.075 78.3319 183.849 78.1083 183.849 77.6611V57.0902C183.849 56.7026 184.014 56.4492 184.346 56.33C186.697 55.1971 189.334 54.6306 192.258 54.6306C193.795 54.6306 195.332 54.7499 196.869 54.9884C197.261 55.0182 197.457 55.2418 197.457 55.6592V58.879C197.457 59.3262 197.216 59.5051 196.734 59.4156C195.98 59.2964 194.759 59.2367 193.072 59.2367C191.414 59.2367 190.088 59.4454 189.093 59.8628V77.6611C189.093 78.1083 188.867 78.3319 188.415 78.3319Z" fill="black"/>
<path d="M219.483 63.7981V68.3148C219.483 68.7322 219.257 68.9408 218.805 68.9408H205.061V70.193C205.061 71.5346 205.483 72.5631 206.327 73.2786C207.201 73.9643 208.376 74.3072 209.853 74.3072C212.053 74.3072 214.178 73.6215 216.228 72.2501C216.589 72.0116 216.891 72.0563 217.132 72.3842L218.985 74.8438C219.287 75.1717 219.242 75.4848 218.85 75.7829C216.228 77.84 213.168 78.8685 209.672 78.8685C206.899 78.8685 204.548 78.1232 202.619 76.6326C200.721 75.1121 199.771 72.9507 199.771 70.1483V63.7981C199.771 60.7274 200.736 58.4318 202.665 56.9113C204.594 55.3909 206.945 54.6306 209.717 54.6306C212.46 54.6306 214.766 55.3909 216.635 56.9113C218.533 58.4318 219.483 60.7274 219.483 63.7981ZM214.374 63.7534C214.374 62.2031 213.937 61.0553 213.063 60.31C212.189 59.5647 211.074 59.192 209.717 59.192C206.613 59.192 205.061 60.7125 205.061 63.7534V64.9161H214.374V63.7534Z" fill="black"/>
<path d="M228.724 78.3319H224.836C224.384 78.3319 224.158 78.1083 224.158 77.6611V57.1796C224.158 56.7921 224.324 56.5238 224.655 56.3747C227.368 55.212 230.367 54.6306 233.652 54.6306C236.938 54.6306 239.499 55.4505 241.338 57.0902C243.207 58.7001 244.141 61.2193 244.141 64.6478V77.6611C244.141 78.1083 243.93 78.3319 243.508 78.3319H239.575C239.123 78.3319 238.897 78.1083 238.897 77.6611V64.7372C238.897 62.7398 238.46 61.3386 237.586 60.5336C236.711 59.6988 235.4 59.2815 233.652 59.2815C232.085 59.2815 230.668 59.4454 229.403 59.7734V77.6611C229.403 78.1083 229.176 78.3319 228.724 78.3319Z" fill="black"/>
<path d="M254.699 70.2377C254.699 71.46 255 72.4141 255.603 73.0997C256.236 73.7854 257.125 74.1283 258.27 74.1283C258.542 74.1283 259.159 74.0985 260.124 74.0389C260.606 74.0389 260.847 74.2475 260.847 74.6649V78.0636C260.847 78.5108 260.636 78.7493 260.214 78.7791C259.19 78.8387 258.391 78.8685 257.818 78.8685C255.317 78.8685 253.297 78.1978 251.76 76.8562C250.223 75.4848 249.454 73.3979 249.454 70.5955V50.1587C249.454 49.7413 249.68 49.5326 250.132 49.5326H253.568C253.96 49.5326 254.186 49.7264 254.247 50.114L254.653 55.4803H259.491C259.943 55.4803 260.169 55.689 260.169 56.1064V59.3709C260.169 59.7883 259.943 59.997 259.491 59.997H254.699V70.2377Z" fill="black"/>
<path d="M269.257 78.3319H265.323C264.871 78.3319 264.645 78.1083 264.645 77.6611V55.7933C264.645 55.376 264.871 55.1673 265.323 55.1673H269.257C269.679 55.1673 269.89 55.376 269.89 55.7933V77.6611C269.89 78.1083 269.679 78.3319 269.257 78.3319ZM269.392 47.0283C269.965 47.565 270.251 48.2507 270.251 49.0854C270.251 49.9202 269.965 50.6208 269.392 51.1872C268.85 51.7537 268.157 52.0369 267.313 52.0369C266.469 52.0369 265.76 51.7537 265.188 51.1872C264.615 50.6208 264.329 49.9202 264.329 49.0854C264.329 48.2507 264.615 47.565 265.188 47.0283C265.76 46.4619 266.469 46.1787 267.313 46.1787C268.157 46.1787 268.85 46.4619 269.392 47.0283Z" fill="black"/>
<path d="M280.116 78.3319H276.227C275.775 78.3319 275.549 78.1083 275.549 77.6611V57.1796C275.549 56.7921 275.715 56.5238 276.047 56.3747C278.759 55.212 281.758 54.6306 285.043 54.6306C288.329 54.6306 290.891 55.4505 292.729 57.0902C294.598 58.7001 295.532 61.2193 295.532 64.6478V77.6611C295.532 78.1083 295.321 78.3319 294.899 78.3319H290.966C290.514 78.3319 290.288 78.1083 290.288 77.6611V64.7372C290.288 62.7398 289.851 61.3386 288.977 60.5336C288.103 59.6988 286.792 59.2815 285.043 59.2815C283.476 59.2815 282.06 59.4454 280.794 59.7734V77.6611C280.794 78.1083 280.568 78.3319 280.116 78.3319Z" fill="black"/>
<path d="M323.442 78.3319H312.23C311.808 78.3319 311.597 78.1083 311.597 77.6611V47.0283C311.597 46.5812 311.808 46.3576 312.23 46.3576L323.442 46.3576C327.27 46.3576 330.254 47.3712 332.394 49.3985C334.564 51.3959 335.649 54.3176 335.649 58.1635V66.6602C335.649 70.4464 334.564 73.3383 332.394 75.3357C330.254 77.3332 327.27 78.3319 323.442 78.3319ZM317.068 51.3214V73.2786H323.442C327.813 73.2786 329.998 71.0874 329.998 66.7049V58.1188C329.998 53.5872 327.813 51.3214 323.442 51.3214H317.068Z" fill="black"/>
<defs>
<linearGradient id="paint0_linear_408_10" x1="65.8588" y1="25.6021" x2="65.8588" y2="123.152" gradientUnits="userSpaceOnUse">
<stop stop-color="#9461E5"/>
<stop offset="1" stop-color="#F399C0"/>
</linearGradient>
<linearGradient id="paint1_linear_408_10" x1="33.2108" y1="0.876343" x2="33.2108" y2="98.2938" gradientUnits="userSpaceOnUse">
<stop stop-color="#9461E5"/>
<stop offset="1" stop-color="#F399C0"/>
</linearGradient>
</defs>
</svg>
