<svg width="46" height="57" viewBox="0 0 46 57" fill="none" xmlns="http://www.w3.org/2000/svg">
<path d="M8.37429 25.1001L2.56629 30.9081L8.37429 36.7166V42.5319L0 34.1571V27.6597L8.37429 19.2921V25.1001Z" fill="black"/>
<path d="M37.0543 30.9696L42.8623 25.1611L37.0543 19.353V13.5378L45.4285 21.9126V28.41L37.0543 36.7776V30.9696Z" fill="black"/>
<path d="M35.5924 28.7138C36.5275 27.7779 37.0528 26.509 37.0528 25.186C37.0528 23.8629 36.5275 22.594 35.5924 21.6581L25.6743 11.7366C25.4137 11.4761 25.0603 11.3297 24.6918 11.3297C24.3233 11.3297 23.9699 11.4761 23.7092 11.7366V11.7366C23.5801 11.8656 23.4777 12.0188 23.4078 12.1874C23.3379 12.356 23.3019 12.5367 23.3019 12.7192C23.3019 12.9017 23.3379 13.0825 23.4078 13.2511C23.4777 13.4197 23.5801 13.5728 23.7092 13.7018L33.6268 23.6213C33.8324 23.8265 33.9956 24.0702 34.1068 24.3385C34.2181 24.6068 34.2754 24.8945 34.2754 25.1849C34.2754 25.4754 34.2181 25.7631 34.1068 26.0314C33.9956 26.2997 33.8324 26.5434 33.6268 26.7486L28.5617 31.8142C28.0808 32.2922 27.7288 32.8842 27.5383 33.535C27.3478 34.1857 27.3251 34.8741 27.4723 35.536L30.6834 50.2886C30.7013 50.3704 30.6921 50.4557 30.6574 50.5319C30.6227 50.608 30.5642 50.6708 30.4907 50.7109C30.4173 50.751 30.3328 50.7662 30.25 50.7542C30.1671 50.7423 30.0904 50.7038 30.0313 50.6445L25.7329 46.3463C25.4723 46.0857 25.1189 45.9393 24.7504 45.9393C24.3819 45.9393 24.0285 46.0857 23.7679 46.3463V46.3463C23.5073 46.607 23.3609 46.9605 23.3609 47.3291C23.3609 47.6977 23.5073 48.0513 23.7679 48.312L30.8961 55.4408C31.269 55.815 31.7748 56.0263 32.303 56.0286C32.6004 56.027 32.8938 55.9593 33.1619 55.8303C33.43 55.7013 33.666 55.5143 33.8528 55.2829C34.0397 55.0514 34.1727 54.7812 34.2423 54.492C34.3119 54.2027 34.3162 53.9016 34.2551 53.6105L30.1896 34.9415C30.1433 34.7351 30.1499 34.5204 30.2088 34.3173C30.2678 34.1142 30.3772 33.9294 30.5267 33.7799L35.5924 28.7138Z" fill="#9461E5"/>
<path d="M35.5924 28.7138C36.5275 27.7779 37.0528 26.509 37.0528 25.186C37.0528 23.8629 36.5275 22.594 35.5924 21.6581L25.6743 11.7366C25.4137 11.4761 25.0603 11.3297 24.6918 11.3297C24.3233 11.3297 23.9699 11.4761 23.7092 11.7366V11.7366C23.5801 11.8656 23.4777 12.0188 23.4078 12.1874C23.3379 12.356 23.3019 12.5367 23.3019 12.7192C23.3019 12.9017 23.3379 13.0825 23.4078 13.2511C23.4777 13.4197 23.5801 13.5728 23.7092 13.7018L33.6268 23.6213C33.8324 23.8265 33.9956 24.0702 34.1068 24.3385C34.2181 24.6068 34.2754 24.8945 34.2754 25.1849C34.2754 25.4754 34.2181 25.7631 34.1068 26.0314C33.9956 26.2997 33.8324 26.5434 33.6268 26.7486L28.5617 31.8142C28.0808 32.2922 27.7288 32.8842 27.5383 33.535C27.3478 34.1857 27.3251 34.8741 27.4723 35.536L30.6834 50.2886C30.7013 50.3704 30.6921 50.4557 30.6574 50.5319C30.6227 50.608 30.5642 50.6708 30.4907 50.7109C30.4173 50.751 30.3328 50.7662 30.25 50.7542C30.1671 50.7423 30.0904 50.7038 30.0313 50.6445L25.7329 46.3463C25.4723 46.0857 25.1189 45.9393 24.7504 45.9393C24.3819 45.9393 24.0285 46.0857 23.7679 46.3463V46.3463C23.5073 46.607 23.3609 46.9605 23.3609 47.3291C23.3609 47.6977 23.5073 48.0513 23.7679 48.312L30.8961 55.4408C31.269 55.815 31.7748 56.0263 32.303 56.0286C32.6004 56.027 32.8938 55.9593 33.1619 55.8303C33.43 55.7013 33.666 55.5143 33.8528 55.2829C34.0397 55.0514 34.1727 54.7812 34.2423 54.492C34.3119 54.2027 34.3162 53.9016 34.2551 53.6105L30.1896 34.9415C30.1433 34.7351 30.1499 34.5204 30.2088 34.3173C30.2678 34.1142 30.3772 33.9294 30.5267 33.7799L35.5924 28.7138Z" fill="url(#paint0_linear_412_20)"/>
<path d="M11.1844 31.2419C11.1197 30.8887 11.1418 30.5252 11.2488 30.1825C11.3558 29.8398 11.5445 29.5282 11.7986 29.2746L16.8643 24.2091C17.3451 23.7325 17.6973 23.1417 17.8878 22.4919C18.0784 21.8422 18.101 21.1548 17.9536 20.4939L14.7405 5.74135C14.7224 5.65954 14.7315 5.5741 14.7661 5.49785C14.8008 5.4216 14.8593 5.35866 14.9328 5.31849C15.0063 5.27832 15.0908 5.26307 15.1737 5.27506C15.2566 5.28704 15.3334 5.32559 15.3925 5.38493L19.6297 9.623C19.8904 9.88355 20.2438 10.0299 20.6123 10.0299C20.9808 10.0299 21.3342 9.88355 21.5948 9.623V9.623C21.8553 9.36237 22.0017 9.00893 22.0017 8.6404C22.0017 8.27187 21.8553 7.91843 21.5948 7.65779L14.5273 0.581887C14.2222 0.277825 13.8269 0.0806966 13.4004 0.0199796C12.974 -0.0407375 12.5394 0.0382191 12.1616 0.245043C11.7838 0.451867 11.483 0.775444 11.3044 1.16739C11.1257 1.55934 11.0787 1.99859 11.1704 2.41947L15.2364 21.0885C15.2576 21.1769 15.2689 21.2674 15.2701 21.3582C15.2694 21.5229 15.2362 21.6859 15.1725 21.8377C15.1087 21.9896 15.0157 22.1274 14.8987 22.2433L9.97049 27.1719C9.10676 28.0357 8.50656 29.1548 8.39658 30.3672C8.3249 31.0998 8.4166 31.8391 8.66508 32.5319C8.91356 33.2248 9.31264 33.8539 9.83354 34.3739L19.6899 44.2311C19.9506 44.4916 20.3041 44.638 20.6727 44.638C21.0413 44.638 21.3948 44.4916 21.6555 44.2311V44.2311C21.916 43.9703 22.0624 43.6168 22.0624 43.2482C22.0624 42.8796 21.916 42.5261 21.6555 42.2653L11.8422 32.4523C11.5091 32.1207 11.2632 31.7031 11.1844 31.2419Z" fill="#9461E5"/>
<path d="M11.1844 31.2419C11.1197 30.8887 11.1418 30.5252 11.2488 30.1825C11.3558 29.8398 11.5445 29.5282 11.7986 29.2746L16.8643 24.2091C17.3451 23.7325 17.6973 23.1417 17.8878 22.4919C18.0784 21.8422 18.101 21.1548 17.9536 20.4939L14.7405 5.74135C14.7224 5.65954 14.7315 5.5741 14.7661 5.49785C14.8008 5.4216 14.8593 5.35866 14.9328 5.31849C15.0063 5.27832 15.0908 5.26307 15.1737 5.27506C15.2566 5.28704 15.3334 5.32559 15.3925 5.38493L19.6297 9.623C19.8904 9.88355 20.2438 10.0299 20.6123 10.0299C20.9808 10.0299 21.3342 9.88355 21.5948 9.623V9.623C21.8553 9.36237 22.0017 9.00893 22.0017 8.6404C22.0017 8.27187 21.8553 7.91843 21.5948 7.65779L14.5273 0.581887C14.2222 0.277825 13.8269 0.0806966 13.4004 0.0199796C12.974 -0.0407375 12.5394 0.0382191 12.1616 0.245043C11.7838 0.451867 11.483 0.775444 11.3044 1.16739C11.1257 1.55934 11.0787 1.99859 11.1704 2.41947L15.2364 21.0885C15.2576 21.1769 15.2689 21.2674 15.2701 21.3582C15.2694 21.5229 15.2362 21.6859 15.1725 21.8377C15.1087 21.9896 15.0157 22.1274 14.8987 22.2433L9.97049 27.1719C9.10676 28.0357 8.50656 29.1548 8.39658 30.3672C8.3249 31.0998 8.4166 31.8391 8.66508 32.5319C8.91356 33.2248 9.31264 33.8539 9.83354 34.3739L19.6899 44.2311C19.9506 44.4916 20.3041 44.638 20.6727 44.638C21.0413 44.638 21.3948 44.4916 21.6555 44.2311V44.2311C21.916 43.9703 22.0624 43.6168 22.0624 43.2482C22.0624 42.8796 21.916 42.5261 21.6555 42.2653L11.8422 32.4523C11.5091 32.1207 11.2632 31.7031 11.1844 31.2419Z" fill="url(#paint1_linear_412_20)"/>
<defs>
<linearGradient id="paint0_linear_412_20" x1="30.1774" y1="11.3297" x2="30.1774" y2="56.0286" gradientUnits="userSpaceOnUse">
<stop stop-color="#9461E5"/>
<stop offset="1" stop-color="#F399C0"/>
</linearGradient>
<linearGradient id="paint1_linear_412_20" x1="15.2177" y1="6.10352e-05" x2="15.2177" y2="44.638" gradientUnits="userSpaceOnUse">
<stop stop-color="#9461E5"/>
<stop offset="1" stop-color="#F399C0"/>
</linearGradient>
</defs>
</svg>
